<svg viewBox="0 0 23 33" xmlns="http://www.w3.org/2000/svg"><g fill="none" fill-rule="evenodd"><path fill="#594C41" d="M9.6 32.4h3.3V26H9.6z"/><path d="M4.2 19.8h13.9l3.8 6.3s1 1.7-.8 1.9H1.4s-1.7-.2-.9-1.8l3.7-6.4M6 10.5h10.4l2.8 6.3s.8 1.7-.6 2H3.8s-1.3-.3-.6-1.8l2.7-6.5M7 9.3h8.6s.7 0 .3-.9l-4.2-7.2s-.5-.8-1 0L6.4 8.6s-.3.7.5.7" fill="#3BAB4C"/><path d="M11 19.8H4.2L.5 26.2c-.8 1.6.9 1.8.9 1.8H11v-8.2M11 10.5H6L3.1 17c-.7 1.5.6 1.7.6 1.7H11v-8.2M11 .9l-.4.3-4 7.4s-.4.7.4.7h4V1" fill="#2F8E44"/></g></svg>