<svg xmlns="http://www.w3.org/2000/svg" height="167.9" width="222.6"><defs><clipPath id="a"><path d="M0 0h2579.9v2126H0z"/></clipPath></defs><g clip-path="url(#a)" transform="matrix(.13333 0 0 -.13333 -63.5 225.7)"><path d="M476.2 937.5c76.7 373 335 554.6 598 555.3 394 194.6 990.1-44.4 926.3-770.6H1736c.9-25.4 1.1-51.3.7-77.8h397.3C2303 1985 591.2 1992 476.2 937.5" fill="#fff"/><path d="M1331.9 1692.7c-397.3 0-801.8-261-855.7-755.2 76.7 373 335 554.6 598 555.3a638.2 638.2 0 0 0 282 65c343.6 0 694-270.1 644.4-835.6h-264.7c.9-25.4 1.1-51.3.7-77.8h397.3c90 712.5-351.4 1048.3-802 1048.3zm0-1.5c239.2 0 460.5-95.3 607-261.5 167.2-189.6 234.2-460.6 193.6-783.8h-394.4c.4 24.5.2 49.6-.6 74.8h263c.8 0 1.5.6 1.5 1.3 23.1 262.6-38.7 482.2-178.7 635.1-117.7 128.5-287.9 202.1-467 202.1a641.5 641.5 0 0 1-282.4-64.9c-285.6-1-515.2-206-592.2-525.3 30.8 216.5 132.2 399.4 294.5 530.3 153.5 123.8 350.9 192 555.7 192" stroke="#1c4f9c" stroke-width="2" fill="#1c4f9c"/><path d="M1074.3 1492.8c-185.6-91.6-326.3-279.5-332-558 46.4 288.6 213.4 426.2 393 447a403.6 403.6 0 0 0 163.4 67c279.8 48 609.7-186.3 547.5-631.4-37 0-159.1 1.3-179.6 1.9a696.7 696.7 0 0 0-16.1-97.1h350c63.8 726.2-532.3 965.2-926.2 770.6" fill="#1c4f9c"/><path d="M1298.7 1448.7c-58-10-113.7-32-163.4-66.8-97.8-68.4-172.1-186-193.1-357.9 63.6 429.5 688.8 362.1 602.4-204.7 33.2 0 77.2.2 122 0 20.5 0 142.6-2 179.6-2 62.2 445.2-267.7 679.4-547.5 631.4" fill="#ee2722"/><path d="M545.2 841.4V766H581c19.8 0 44.4 8.6 44.4 37.8 0 27.1-20.8 37.6-44.4 37.6zM476 898h98.2c85.5 0 118-40.7 118-95.1 0-44.6-23.8-93.4-118.6-93.4h-28.1v-96.2h-69.5v284.7M990.8 841.5v-75.4h35.8c19.8 0 44.4 8.8 44.4 38 0 27-20.9 37.4-44.4 37.4zm-69.2 56.8h98.2c85.5 0 118-40.8 118-95.2 0-44.6-24-93.3-118.7-93.3h-28v-96.3h-69.5v284.8M763 840.8h-59.3V898h186.7v-57.3H831V613.4h-68v227.4M1388.5 711.7h71.9c-13.8-58.1-80-104.7-146-104.7-74.5 0-157.4 56.9-157.4 150.4 0 97.5 86.8 147 154.7 147 74.6 0 129.3-37.8 148.7-105.5h-72c-17.3 32.7-39.2 46.6-73 46.6-58.9 0-89-42.5-89-87.4 0-46.4 30.7-91.4 91.4-91.4 30.8 0 53 12.7 70.7 45" fill="#1c4f9c" fill-rule="evenodd"/><path d="M497.5 511.6h-20v14h56.7v-14h-20.1V452h-16.6v59.7M606.6 483h-27.2v-17.4h30.3v-13.7h-46.9v73.7h45.4V512h-28.8v-15.3h27.2v-13.5M698.2 525.6V452h-16.7v60h-16.7v-17.5c0-18.9-2.4-33.5-13.6-40.1-3.7-2-8.7-3.6-14.6-3.6l-2.1 13.4c3.6.5 6.6 2 8.4 4 4.5 4.6 5.6 14.1 5.6 25.3v32.2h49.7M776.2 483h-27.1v-17.4h30.3v-13.7h-47v73.7H778V512H749v-15.3h27.1v-13.5M827 491.2c1.3-.4 3-.5 5.5-.5 8.9 0 14.3 4.5 14.3 12 0 6.7-4.7 10.8-13 10.8-3.4 0-5.7-.2-6.9-.6zm-16.6 33.4a136 136 0 0 0 22.5 1.6c10.3 0 17.6-2 22.6-6 4.8-3.6 7.9-9.8 7.9-17a23 23 0 0 0-6.8-17.5 34.6 34.6 0 0 0-24-7.8c-2.2 0-4.1.1-5.7.5v-26.5h-16.5v72.7M922.8 483.3l-4.6 15.6c-1.3 4.4-2.6 9.9-3.7 14.2h-.2c-1.1-4.3-2.2-9.9-3.4-14.2l-4.4-15.6zM904 470.8l-5.3-19h-17.1l22.4 73.8H926l23-73.7h-18.1l-5.7 19H904M1005.2 502.2c0-8.5-1-16.8-3.3-24.3-1.3-4.5-3.1-9-5-12.5h24.5v46.7h-16.2zm32.8 23.4V465l7.4-.4-.8-31.3H1032l-.9 18.6H988l-.8-18.6h-12.7l-.7 31.3 6.2.4a72.8 72.8 0 0 1 9.9 41v19.6h48.2M1089.7 525.6v-21.9c0-11.8-.3-23.5-.9-33.3h.4c4 8.6 8.8 18.4 13.2 26.2l15.9 29h17V452H1120v21.8c0 11.3.2 21.4 1.2 31h-.3c-3.4-8.7-8.2-18.5-12.6-26.2l-15-26.6h-19v73.7h15.4M1183.8 488.6c0-14.5 6.7-24.7 17.9-24.7 11.3 0 17.7 10.7 17.7 25 0 13.4-6.2 24.8-17.7 24.8-11.4 0-18-10.7-18-25zm53.2 1c0-24.4-14.5-39-36.2-39-21.8 0-34.7 16.6-34.7 37.7 0 22.1 14.2 38.6 36 38.6 22.6 0 35-17 35-37.4M1321.6 453.9a49 49 0 0 0-18.8-3.2c-25.5 0-38.6 16-38.6 37 0 25.1 18 39 40.3 39 8.6 0 15.2-1.6 18.1-3.3l-3.5-13c-3.3 1.3-8 2.7-14 2.7-13.1 0-23.4-8-23.4-24.5 0-14.7 8.8-24 23.5-24 5.2 0 10.6 1 14 2.4l2.4-13.1M1396.2 483H1369v-17.4h30.4v-13.7h-47v73.7h45.4V512H1369v-15.3h27.2v-13.5M1444.7 511.6h-20v14h56.7v-14h-20V452h-16.7v59.7M1526.6 464a35 35 0 0 1 6.1-.4c8 0 14.6 4 14.6 12.3 0 8.4-6.4 11.9-14.4 11.9-2.4 0-4.4-.2-6.3-.5zm0 61.6V500c2.3.4 5.9.7 9 .7 15.8 0 29.2-7.6 29.2-24 0-7.1-2.2-12.3-5.9-16-7-7.3-19.4-9.5-30.8-9.5-8.3 0-14.3.6-18 1.1v73.4h16.5M1653.8 491.2c1.4-.4 3-.5 5.5-.5 8.9 0 14.3 4.5 14.3 12 0 6.7-4.7 10.8-13 10.8-3.3 0-5.7-.2-6.8-.6zm-16.6 33.4c5.2 1 12.4 1.6 22.6 1.6 10.2 0 17.6-2 22.5-6 4.8-3.6 7.9-9.8 7.9-17a23 23 0 0 0-6.8-17.5 34.7 34.7 0 0 0-24-7.8c-2.2 0-4.1.1-5.7.5v-26.5h-16.5v72.7M1734.3 488.6c0-14.5 6.8-24.7 18-24.7s17.7 10.7 17.7 25c0 13.4-6.3 24.8-17.7 24.8-11.4 0-18-10.7-18-25zm53.3 1c0-24.4-14.6-39-36.2-39-21.8 0-34.7 16.6-34.7 37.7 0 22.1 14.2 38.6 35.9 38.6 22.6 0 35-17 35-37.4M1872.2 453.9c-3-1.5-10-3.2-18.8-3.2-25.5 0-38.6 16-38.6 37 0 25.1 17.9 39 40.2 39 8.7 0 15.2-1.6 18.2-3.3l-3.5-13c-3.3 1.3-8 2.7-14 2.7-13.1 0-23.4-8-23.4-24.5 0-14.7 8.7-24 23.5-24 5.1 0 10.6 1 14 2.4l2.4-13.1M1954 453.9c-2.9-1.5-9.9-3.2-18.8-3.2-25.4 0-38.6 16-38.6 37 0 25.1 18 39 40.3 39 8.7 0 15.2-1.6 18.2-3.3l-3.5-13c-3.3 1.3-8 2.7-14 2.7-13.2 0-23.5-8-23.5-24.5 0-14.7 8.8-24 23.6-24 5.1 0 10.6 1 14 2.4l2.4-13.1M2000 525.6v-21.9a616 616 0 0 0-.8-33.3h.3c4 8.6 8.9 18.4 13.2 26.2l16 29h17V452h-15.3v21.8c0 11.3.2 21.4 1.2 31h-.3c-3.4-8.7-8.2-18.5-12.6-26.2l-15-26.6h-19v73.7h15.4M2095.2 525.6v-21.9c0-11.8-.4-23.5-.9-33.3h.3c4 8.6 8.9 18.4 13.3 26.2l15.8 29h17.1V452h-15.3v21.8c0 11.3.2 21.4 1.2 31h-.3a214 214 0 0 0-12.6-26.2l-15-26.6h-19v73.7h15.4" fill="#1c4f9c"/></g></svg>