<svg class="lds-spinner" width="200" height="200" xmlns="http://www.w3.org/2000/svg" viewBox="0 0 100 100" preserveAspectRatio="xMidYMid" style="background:0 0"><rect x="47.5" y="13" rx="9.5" ry="2.6" width="5" height="20" fill="#5699d2"><animate attributeName="opacity" values="1;0" keyTimes="0;1" dur="1s" begin="-0.9090909090909091s" repeatCount="indefinite"/></rect><rect x="47.5" y="13" rx="9.5" ry="2.6" width="5" height="20" fill="#5699d2" transform="rotate(32.727 50 50)"><animate attributeName="opacity" values="1;0" keyTimes="0;1" dur="1s" begin="-0.8181818181818182s" repeatCount="indefinite"/></rect><rect x="47.5" y="13" rx="9.5" ry="2.6" width="5" height="20" fill="#5699d2" transform="rotate(65.455 50 50)"><animate attributeName="opacity" values="1;0" keyTimes="0;1" dur="1s" begin="-0.7272727272727273s" repeatCount="indefinite"/></rect><rect x="47.5" y="13" rx="9.5" ry="2.6" width="5" height="20" fill="#5699d2" transform="rotate(98.182 50 50)"><animate attributeName="opacity" values="1;0" keyTimes="0;1" dur="1s" begin="-0.6363636363636364s" repeatCount="indefinite"/></rect><rect x="47.5" y="13" rx="9.5" ry="2.6" width="5" height="20" fill="#5699d2" transform="rotate(130.91 50 50)"><animate attributeName="opacity" values="1;0" keyTimes="0;1" dur="1s" begin="-0.5454545454545454s" repeatCount="indefinite"/></rect><rect x="47.5" y="13" rx="9.5" ry="2.6" width="5" height="20" fill="#5699d2" transform="rotate(163.636 50 50)"><animate attributeName="opacity" values="1;0" keyTimes="0;1" dur="1s" begin="-0.45454545454545453s" repeatCount="indefinite"/></rect><rect x="47.5" y="13" rx="9.5" ry="2.6" width="5" height="20" fill="#5699d2" transform="rotate(196.364 50 50)"><animate attributeName="opacity" values="1;0" keyTimes="0;1" dur="1s" begin="-0.36363636363636365s" repeatCount="indefinite"/></rect><rect x="47.5" y="13" rx="9.5" ry="2.6" width="5" height="20" fill="#5699d2" transform="rotate(229.09 50 50)"><animate attributeName="opacity" values="1;0" keyTimes="0;1" dur="1s" begin="-0.2727272727272727s" repeatCount="indefinite"/></rect><rect x="47.5" y="13" rx="9.5" ry="2.6" width="5" height="20" fill="#5699d2" transform="rotate(261.818 50 50)"><animate attributeName="opacity" values="1;0" keyTimes="0;1" dur="1s" begin="-0.18181818181818182s" repeatCount="indefinite"/></rect><rect x="47.5" y="13" rx="9.5" ry="2.6" width="5" height="20" fill="#5699d2" transform="rotate(294.545 50 50)"><animate attributeName="opacity" values="1;0" keyTimes="0;1" dur="1s" begin="-0.09090909090909091s" repeatCount="indefinite"/></rect><rect x="47.5" y="13" rx="9.5" ry="2.6" width="5" height="20" fill="#5699d2" transform="rotate(327.273 50 50)"><animate attributeName="opacity" values="1;0" keyTimes="0;1" dur="1s" begin="0s" repeatCount="indefinite"/></rect></svg>