<svg viewBox="0 0 25 33" xmlns="http://www.w3.org/2000/svg"><g fill="none" fill-rule="evenodd"><path fill="#594C41" d="M10.4 33h3.4v-6.4h-3.4z"/><path fill="#90C33F" d="M.3 28l12-19.3L24 28H.3"/><path fill="#90C33F" d="M4 18.1L12.3 5 20.4 18H4"/><path fill="#7DAC41" d="M8.8 10.5h6.9l1.2 2-8.1-2M6.4 18.1H18l1.2 2-12.8-2"/><path fill="#90C33F" d="M5.9 10.8l6.2-10 6.2 10H5.9"/><path d="M9.9 4.3s.5 3.6 4.3-.2c0 0-5 7-4.3.2M7.4 13s1.1 3.6 9.7-.2c0 0-11.3 7-9.7.2M4 21.8s2 3.6 16.3-.2c0 0-18.8 7-16.2.2" fill="#B46054"/><path d="M10.4 8s0 .2-.2.2A.2.2 0 0 1 10 8V7c0-.2.1-.2.2-.2s.2 0 .2.2v1M12.6 7.3s0 .2-.2.2a.2.2 0 0 1-.2-.3v-1l.2-.2c.1 0 .2.1.2.3v1M14.4 5.4a.2.2 0 1 1-.5 0v-1a.2.2 0 1 1 .5 0v1M7.4 15.6c0 .1 0 .2-.2.2-.1 0-.2 0-.2-.2v-1a.2.2 0 0 1 .4 0v1M4.5 25a.2.2 0 1 1-.4 0v-1a.2.2 0 1 1 .4 0v1M6.8 25.7a.2.2 0 1 1-.4 0v-1a.2.2 0 1 1 .4 0v1M9.5 25.7a.2.2 0 1 1-.4 0v-1a.2.2 0 1 1 .4 0v1M12.9 25a.2.2 0 1 1-.5 0v-1a.2.2 0 1 1 .5 0v1M16 24.3a.2.2 0 0 1-.5 0v-1l.2-.2c.1 0 .2 0 .2.2v1M9 16.5a.2.2 0 1 1-.4 0v-1a.2.2 0 1 1 .4 0v1M11.5 16.3a.2.2 0 1 1-.4 0v-1a.2.2 0 1 1 .4 0v1M14.6 15.3a.2.2 0 1 1-.4 0v-1a.2.2 0 1 1 .4 0v1" fill="#F0EAD0"/></g></svg>