<svg viewBox="0 0 24 36" xmlns="http://www.w3.org/2000/svg"><g fill="none" fill-rule="evenodd"><path fill="#594C41" d="M10.5 36h3.3v-6.4h-3.3z"/><path fill="#2F8E44" d="M24 31.8H.2L22.2 27l1.7 4.7M8.3 21.7L21 24.6l-8.2 2-9.5-2 5-3M12 7.2l3.3 3.4-2.8 1L9.7 10 12 7.2"/><path fill="#93C23F" d="M9.7 10l4.5-3.4-1.7-3.8L9.7 10"/><path fill="#2F8E44" d="M6.3 17.3l6.2 2 5.7-2-7.4-2.7-4.5 2.7"/><path fill="#93C23F" d="M7.7 13.6L15 10l1.7 3.6-10.5 3.7 1.4-3.7M4.6 20.9l13.6-3.6 1.3 3.6-16.2 3.7 1.3-3.7M1.5 28L21 24.2l1.5 3.8L.3 31.8 1.5 28"/><path fill="#B46054" d="M12.6.3l.7 1.4 1.5.2-1 1 .2 1.6-1.4-.7-1.3.7.2-1.5-1-1 1.4-.3.7-1.4"/><path d="M10.6 24.6c-3.6 0-6.5-2.4-6.5-2.4l.1-.2s3.4 2.8 7.4 2.3c2.7-.3 5.2-2 7.3-5l.1.1c-2.1 3-4.6 4.7-7.3 5l-1 .2M9.7 17.5c-2 0-3.3-1-3.3-1v-.2c.1 0 1.6 1.2 4 1 2-.3 4.1-1.7 6-4.2l.2.1c-2 2.6-4 4-6.3 4.2a6 6 0 0 1-.6 0" fill="#E5E0D1"/><path fill="#B46054" d="M6.3 22.9l.3.6h.6l-.4.6v.6l-.5-.3-.6.3v-.6l-.4-.5.7-.1.3-.6M10.7 23.7l.3.6h.7l-.5.5v.7l-.5-.3-.6.3.1-.7-.5-.4.7-.1.3-.6M14.8 22.2l.3.7h.7l-.5.5.1.7-.6-.3-.6.3.1-.7-.5-.4.7-.1.3-.7M18.2 19.5l.3.6.7.1-.5.5.1.7-.6-.3-.6.3.1-.7-.4-.5h.6l.3-.7M7.5 16l.3.6.7.1-.5.5.1.7-.6-.3-.6.3.2-.7-.5-.5h.6l.3-.7M11.7 16.2l.3.6h.6l-.5.5.1.7-.5-.3-.6.3v-.7l-.4-.4.7-.1.3-.6M15.8 13.8l.3.6.6.1-.4.5v.6l-.5-.3-.6.3V15l-.4-.5.7-.1.3-.6"/></g></svg>