<svg viewBox="0 0 23 34" xmlns="http://www.w3.org/2000/svg"><g fill="none" fill-rule="evenodd"><path fill="#594C41" d="M9.9 33.6h3.3v-6.3H10z"/><path d="M6 8.6l4.6-7.2s1-1.5 2.1 0c1.2 1.5 4.4 7.2 4.4 7.2s1.5 2.2-.6 2.2H6.8s-2 0-.8-2.2" fill="#3DAB48"/><path d="M3.5 17.3l6.6-10.5s1.4-2.2 3.1 0c1.7 2 6.4 10.4 6.4 10.4s2 2.7-.9 3.3h-14s-3.1-.2-1.2-3.3" fill="#3DAB48"/><path d="M1.1 26l8.5-12.2s1.9-2.5 4 0C16 16.2 22 25.9 22 25.9s2.6 3.8-1.1 3.8H2.6s-4-.2-1.5-3.8" fill="#3DAB48"/><path d="M13 9a1.5 1.5 0 1 1-3 0 1.5 1.5 0 0 1 3 0" fill="#FEF5F6"/><path d="M12.7 16.7a2.6 2.6 0 1 1-5.2 0 2.6 2.6 0 0 1 5.2 0" fill="#22733C"/><path d="M10.3 24.8a1.4 1.4 0 1 1-2.8 0 1.4 1.4 0 0 1 2.8 0M16.8 17.7a1 1 0 1 1-2.2 0 1 1 0 0 1 2.2 0" fill="#FFFCF6"/><path d="M16 23.4a1.4 1.4 0 1 1-2.8 0 1.4 1.4 0 0 1 2.8 0" fill="#22733C"/></g></svg>