<svg viewBox="0 0 24 33" xmlns="http://www.w3.org/2000/svg"><g fill="none" fill-rule="evenodd"><path fill="#594C41" d="M10.3 33h3.4v-6.4h-3.4z"/><path d="M1.6 25.2L10 13s1.8-2.4 4 0c2.2 2.5 8.2 12.2 8.2 12.2s2.7 3.7-1 3.7H3s-4-.2-1.5-3.7" fill="#2E8F44"/><path d="M4 16.5L10.4 6s1.5-2 3.2 0C15.4 8.1 20 16.5 20 16.5s2 2.6-.8 3.2h-14s-3.2-.2-1.3-3.2" fill="#90C33F"/><path d="M6.5 7.9L11 .7s1-1.5 2.2 0a95 95 0 0 1 4.4 7.2S19 10 17 10H7.3S5.2 10 6.5 8" fill="#2E8F44"/><path d="M14.5 4.2a1.5 1.5 0 1 1-2.9 0 1.5 1.5 0 0 1 3 0" fill="#FEF5F6"/><path d="M13.1 16A2.6 2.6 0 1 1 8 16a2.6 2.6 0 0 1 5.1 0" fill="#F0EAD0"/><path d="M10.7 24A1.4 1.4 0 1 1 8 24a1.4 1.4 0 0 1 2.7 0M17.2 17a1 1 0 1 1-2.2 0 1 1 0 0 1 2.2 0" fill="#FFFCF6"/><path d="M16.4 22.7a1.4 1.4 0 1 1-2.7 0 1.4 1.4 0 0 1 2.7 0M16.4 8.7c0 .3-.3.6-.6.6H8.6a.7.7 0 1 1 0-1.3h7.2c.3 0 .6.3.6.7M22.3 27.5c0 .4-.7.7-1.6.7H3.8c-.8 0-1.5-.3-1.5-.7 0-.4.7-.7 1.5-.7h17c.8 0 1.5.3 1.5.7" fill="#F0EAD0"/></g></svg>